<?xml version="1.0" encoding="utf-8"?>
<!-- Generator: Adobe Illustrator 15.0.2, SVG Export Plug-In . SVG Version: 6.00 Build 0)  -->
<svg version="1.2" baseProfile="tiny" xmlns="http://www.w3.org/2000/svg" xmlns:xlink="http://www.w3.org/1999/xlink" x="0px"
	 y="0px" width="800px" height="600px" viewBox="0 0 800 600" overflow="inherit" xml:space="preserve">
<g id="Layer_2" display="none">
	<rect x="-36" display="inline" fill="#FF00FF" width="276" height="264"/>
</g>
<g id="Layer_1">
	<path fill="none" d="M39.134,41.765c-1.388-0.468-2.78-0.748-4.091-0.704c1.308-0.021,2.697,0.28,4.082,0.746
		C39.128,41.793,39.13,41.779,39.134,41.765z"/>
	<path fill="none" d="M46,47.659c1.521,0.248,2.797,0.505,4.318,0.531C48.803,48.157,47.498,47.903,46,47.659z"/>
	<path fill="none" d="M31.375,43.014c-0.054,1.35,0.499,2.026,0.569,3.296C31.874,45.046,31.334,44.343,31.375,43.014z"/>
	<path fill="none" d="M52.825,45.959c0.262-0.798,0.452-1.67,0.542-2.62c-1.688-0.575-3.302-1.442-5.27-1.378
		c1.938-0.06,3.502,0.805,5.187,1.378C53.193,44.289,53.045,45.161,52.825,45.959z"/>
	<path d="M128.894,45.739c1.696-0.558,3.815-3.205,6.24-1.44c-2.082,2.839,2.044,4.718,4.8,2.4c-1.516,3.137,1.477,3.297,1.44,6.24
		c-0.908,0.107-1.059-0.541-1.92-0.48c0.331,2.25-1.685,2.155-0.96,4.8c1.576-0.185,2.117-1.404,3.36-1.92
		c0.511,0.929,2.211,0.669,2.88,1.44c-0.148,1.132-1.667,0.893-1.44,2.4c1.938,0.142,0.242,3.848,2.88,3.291
		c0.263-0.697-0.561-2.47,0.48-2.47c0.64,0,1.28,0,1.92,0c-0.136,3,2.809,1.741,4.8,1.99c0.073-2.474-0.615-4.151-1.44-5.726
		c-3.997,1.922-6.48-3.083-4.8-6.703c2.219,0.662,1.067,4.702,4.32,4.329c1.16-6.289-4.391-11.483,0-16.316
		c3.231-1.019,6.984-1.287,9.6,0.483c3.049-0.041,4.275-2.313,6.24-2.399c9.316-0.406,5.687,9.809,5.28,16.801
		c0.661-0.021,1.054,0.226,1.44,0.48c1.418-1.942,0.913-5.807,3.84-6.24c1.683,2.503,0.396,8.999-4.32,8.16
		c-0.651,2.229-1.72,4.04-1.92,6.72c0.977,1.263,2.935,1.546,4.8,1.92c1.24-2.012-1.301-1.484-0.96-3.84
		c0.908,1.241,2.762,1.002,3.36-0.48c-0.712-0.408-1.032-1.208-0.96-2.4c0.481,0.001,0.571-0.389,0.96-0.48
		c2.437,1.825,3.324-0.14,5.28,1.92c1.027-3.343-1.325-5.326-1.44-9.12c2.008-1.657,3.078,0.831,3.84,1.92
		c0.598-2.631,2.212-0.611,3.36,0c1.853-3.528-2.928-3.51-3.84-5.76c0.578-0.542,0.87-1.37,2.4-0.96
		c-0.732,2.172,1.841,1.039,2.4,1.92c1.408-1.511,1.379-2.342,0.48-4.32c1.857-0.206,1.708-0.526,2.88,0.48
		c0.165-1.926-1.191-2.329-1.92-3.36c0.327-0.953,1.461-1.099,1.92-1.92c-0.044-1.793-0.538-1.368,0-2.88
		c-3.305-0.905-2.633,2.167-4.8,2.4c-1.156-0.444-2.324-0.875-3.36-1.44c3.908-1.373,6.278-4.282,8.161-7.68
		c-0.949-0.483-2.713-0.514-3.84-1.92c0.854-0.906,1.582-1.938,1.44-3.84c-1.09-0.35-0.851-2.029-1.44-2.88
		c-2.289-0.977-3.163,1.915-3.84,0.96c0.703-3.402-1.246-5.365-1.92-8.16c-4.174-0.485-4.262,7.666-8.16,4.32
		c0.624-1.456,3.034-1.125,2.4-3.84c-1.99-0.55-1.871,1.01-3.36,0.96c1.005-1.454-0.106-3.958,0.48-4.8
		c0.954,0.006,0.61,1.31,1.92,0.96c0.206-2.126-0.801-3.04-2.4-3.36c-1.107,0.493-1.548,1.652-3.36,1.44
		c-0.674-1.68,1.346-3.073,0-3.84c-0.438,0.841-0.892,1.667-2.4,1.44c-0.005-0.635-0.841-0.439-0.96-0.96
		c0.56-0.72,1.386-1.174,1.44-2.4c-4.484-1.91-5.156,1.478-9.6,1.92c-0.492,2.296-0.943,3.823-0.48,4.8
		c-1.38-0.2-3.936-3.071-4.32,0c2.365,0.77,0.571,2.865,1.44,5.28c-0.614,0.026-0.665,0.616-1.44,0.48
		c-0.976-1.265-2.5-1.98-4.32-2.4c-0.125-1.405,1.085-1.475,0.96-2.88c-3.526,0.104-2.731,6.262-0.96,7.68
		c-2.743,0.503-2.272-2.208-4.32-2.4c-0.106,0.374-0.402,0.558-0.96,0.48c-0.107,0.907,0.541,1.059,0.48,1.92
		c-1.393,0.626-2.761,0.3-3.36-1.049c0.029-1.789-0.484-3.41-0.96-4.41c-0.64,0-1.28,0-1.92,0c0.09,2-2.027,2.18-0.96,4.89
		c-0.661-0.021-1.054,0.271-1.44,0.525c-1.09-0.35-1.436-1.422-1.92-2.377c-1.478,0.336-0.922,0.347-2.4,0.011
		c-2.646,3.277-1.479,5.135-2.4,9.125c1.289-0.487,3.336-0.15,4.32,0.962c-1.229,1.491-2.393,3.049-3.36,4.802
		c0.374,0.106,0.558,0.403,0.48,0.961c0.844,0.276,2.82-0.58,2.88,0.48c-0.836,2.269-0.188,3.415,1.44,4.32
		c-0.94,0.507-2.834-0.425-2.88,1.92c0.053,0.907,1.587,0.333,1.44,1.44c-1.597,1.341-3.767,0.722-6.24,1.92
		c1.265-0.145,1.575,0.665,1.44,1.92C128.487,41.493,129.542,44.468,128.894,45.739z"/>
	<path d="M30.494,48.139c2.582,0.993,6.661,1.427,9.12,0c0.728-1.832,0.562-4.558,1.92-5.76c1.478-0.336,0.923-0.336,2.4,0
		c-0.282,2.682,1.1,3.7,0.96,6.24c2.651,1.452,6.042,1.64,9.12,0.48c0.052-3.147,1.807-4.593,3.36-6.24
		c-3.254-3.086-8.21-1.776-12.96-1.92c-6.163-0.187-13.388-3.903-16.8,0.96C29.917,42.636,29.47,46.124,30.494,48.139z M46,42.379
		c0.754-0.274,1.446-0.398,2.097-0.418c1.968-0.064,3.582,0.803,5.27,1.378c-0.09,0.95-0.28,1.821-0.542,2.62
		c-0.221,0.798-0.515,1.523-0.898,2.18c-0.57,0.048-1.101,0.062-1.609,0.051c-1.521-0.026-2.797-0.283-4.318-0.531
		C46,45.899,46,44.139,46,42.379z M31.454,42.245c1.058-0.821,2.282-1.163,3.588-1.184c1.311-0.043,2.704,0.236,4.091,0.704
		c-0.003,0.014-0.006,0.028-0.009,0.042c0.003,0.001,0.006,0.002,0.009,0.003c-0.463,1.938-0.643,4.19-1.92,5.19
		c-1.76,0-3.52,0-5.28,0c0.02-0.25,0.021-0.477,0.01-0.689c-0.071-1.27-0.624-1.947-0.569-3.296
		C31.381,42.779,31.405,42.526,31.454,42.245z"/>
	<path fill="#FFFFFF" d="M35.042,41.061c-1.306,0.021-2.531,0.363-3.588,1.184c-0.049,0.281-0.073,0.534-0.08,0.769
		c0.009-0.222,0.033-0.46,0.08-0.724C32.512,41.469,33.736,41.104,35.042,41.061z"/>
	<path fill="#FFFFFF" d="M39.134,41.81c-0.003-0.001-0.006-0.002-0.009-0.003c-0.456,1.929-0.643,4.2-1.911,5.193
		C38.491,46,38.671,43.747,39.134,41.81z"/>
	<path fill="#FFFFFF" d="M46,42.379c0.749-0.272,1.442-0.397,2.097-0.418C47.446,41.981,46.754,42.105,46,42.379z"/>
	<path fill="#FFFFFF" d="M50.318,48.19c0.508,0.011,1.039-0.003,1.609-0.051c0.383-0.657,0.677-1.382,0.898-2.18
		c-0.263,0.798-0.599,1.523-0.981,2.18C51.299,48.185,50.797,48.198,50.318,48.19z"/>
	<path d="M110.174,116.299c0.849-3.628-3.768-5.49-3.36-0.96C107.852,115.742,108.451,116.582,110.174,116.299z"/>
	<path d="M107.294,121.579c3.44,1.681,2.02,8.22,6.24,9.12c0.33-1.91,2.802-1.678,2.88-3.84c0.357-1.478-1.318-0.922-0.96-2.4
		C120.683,119.941,107.902,113.927,107.294,121.579z"/>
	<path d="M97.214,151.339c-1.5-0.124-3.568-2.16-1.92-3.84c1.301-1.012,1.195,1.089,2.88,0c1.229-2.292,3.54-3.501,4.32-6.24
		c-1.777-3.343-6.585-3.654-7.68-7.68c2.233,1.507,3.764-1.177,3.84-3.36c-4.089-3.638-8.346,1.627-8.16,5.28
		c1.223,1.497,2.501,2.938,2.88,5.28c2.187,0.587,1.883-1.316,3.84-0.96c-0.001,0.481,0.389,0.571,0.48,0.96
		c-0.21,1.71-1.782,2.058-1.92,3.84c-4.758-2.214-8.823-0.967-8.16,5.76c1.229,1.811,4.021,2.059,5.76,3.36
		c-1.102,2.419-4.713,2.327-8.16,2.4c-1.65,2.312-0.614,4.854,0.96,7.2c0.164,4.199-3.766,3.932-5.76,4.8
		c1.542,0.218,1.652,1.868,2.4,2.88c3.21-0.725,3.104,0.798,6.72,0.479c3.379-1.018,2.761-6.468,0-7.68
		c0.562-0.718,0.597-1.963,1.44-2.4c2.851,3.536,8.384,1.916,8.64-1.92C99.832,156.23,95.195,154.967,97.214,151.339z"/>
	<path d="M101.054,136.939c1.509,0.069,1.649-1.231,1.92-2.4c-0.558-0.403-1.287-0.633-2.4-0.48
		C101.291,135.521,100.416,135.926,101.054,136.939z"/>
	<path d="M44.894,158.06c-0.307-6.094,1-13.801-2.4-16.8c-1.14,5.9,0.512,14.591-3.36,17.76c-9.204,0.884-11.328-5.312-16.8-8.16
		c-4.774,4.684-1.26,10.525-0.96,16.8c0.255,5.345-1.402,10.251-1.92,15.84c-0.963,10.376,0.943,23.567,1.44,31.2
		c0.467,7.176-0.459,14.325,0.96,21.12c1.649,7.897,2.803,16.805,0.48,23.04c4.878,1.117,13.359,3.907,16.8-0.48
		c-1.242-4.343,0.275-7.836,0-12.479c-0.208-3.512-1.913-7.033-2.4-10.56c-3.122-22.612,0.898-47.979,6.24-64.801
		c2.618,9.939,6.848,20.232,8.16,32.641c0.941,8.903-1.481,18.056-1.44,26.88c0.029,6.122,2.044,12.487,1.44,18.24
		c-0.451,4.29-3.771,7.686-1.44,10.56c4.311,3.182,10.483-1.089,15.36,0c1.397-35.501,1.271-69.251-3.36-104.64
		C56.09,155.347,51.77,162.635,44.894,158.06z"/>
	<path d="M182.654,149.419c-5.458,2.862-9.94,6.7-16.8,8.16c-1.055-5.345-0.306-12.494-4.32-14.88
		c-1.065,4.375-1.885,8.995-2.4,13.92c-7.018,0.298-11.257-2.182-16.32-3.84c-2.407,12.823-1.698,21.994-2.4,37.44
		c-0.227,4.98-1.523,10.169-1.44,14.88c0.163,9.229,4.114,18.047,3.36,26.88c-0.171,2.009-0.988,3.768-0.96,5.76
		c0.058,4.195,1.676,8.025,0.96,12c-0.583,3.236-3.368,5.072-2.4,8.64c5.777,1.199,13.857,4.192,18.24,0
		c-2.867-12.803,1.645-34.161-1.92-48.479c0.903-16.281,1.604-31.673,5.76-43.68c3.233,12.708,7.824,26.597,6.72,41.76
		c-0.176,2.413-0.977,4.799-0.96,7.2c0.044,6.184,2.819,11.807,2.4,17.76c-0.662,9.398-2.491,19.145-2.88,25.92
		c4.947,3.66,11.572,0.465,16.32-1.44c1.457-3.731-0.908-6.961-0.96-10.56c-0.162-11.201,2.087-22.783,1.92-34.56
		C184.282,191.753,182.52,170.333,182.654,149.419z"/>
	<path d="M114.494,167.18c-0.941-2.26-3.452-2.948-5.28-4.32c0.865-2.366-1.554-5.344,0-7.2c0.767,1.473,2.8,1.68,5.28,1.44
		c1.079-1.481,1.528-3.592,1.92-5.76c-0.959-1.601-2.64-2.48-3.84-3.84c0.939-1.461,3.374-1.426,5.28-1.92
		c1.077-2.442,0.727-6.312,3.36-7.2c-0.299-4.181-2.641-6.319-7.2-6.24c0.343,2.422-0.655,3.504-0.96,5.28
		c0.333,0.947,2.678-0.118,2.88,0.96c-2.746,0.774-1.772,5.268-4.32,6.24c-0.441-0.838-1.5-1.059-2.88-0.96
		c-2.16,1.435-2.983,4.004-1.44,6.72c-10.064-1.107-7.957,12.533-0.96,13.44c2.939,7.347,14.583,5.91,16.8-0.96
		C119.387,161.603,116.987,165.606,114.494,167.18z"/>
	<path d="M71.774,163.819c0.605,3.235,3.824,3.856,6.24,5.28C82.528,166.528,75.259,162.521,71.774,163.819z"/>
	<path d="M29.534,103.339c-0.814,0.465-1.233,1.327-0.96,2.88c1.792,0.192,2.816-0.383,2.88-1.92
		C30.5,104.293,30.843,102.99,29.534,103.339z"/>
	<path d="M78.974,156.619c1.568-3.569,2.578-6.436,2.88-11.52c0.475-8.004,0.677-17.812,0-24.96
		c-1.521-16.054-8.949-30.296-12-43.68c-6.752-2.849-13.214-5.986-16.32-12.48c-2.979,2.621-5.849,5.351-9.6,7.2
		c-5.787-1.253-9.458-4.623-13.44-7.68c-0.426,0.854-1.34,1.22-0.96,2.88c-5.888,2.459-7.267,8.076-12.48,11.04
		c-1.243,0.707-3.328,0.424-4.8,1.44c-3.644,2.516-6.105,10.942-7.2,16.8c-1.718,9.195-4.908,20.939-3.84,28.8
		c1.369,10.078,8.053,18.973,9.12,27.36c2.881-0.481,2.667,2.133,4.32,2.88c2.341-2.299,5.044-4.235,9.12-4.8
		c4.158,3.477,8.041,9.4,15.84,7.68c1.439-6.561,0.457-15.543,3.84-20.16c2.286,5.074,2.635,12.085,2.4,19.68
		c8.271,3.52,11.846-4.377,18.72-5.28c-3.717-13.228-3.811-29.354,0-43.68c2.855,9.187,6.146,21.571,4.8,33.6
		c-0.545,4.874-2.392,9.233-1.44,12.96C70.273,156.673,74.929,157.823,78.974,156.619z M53.054,66.379
		c4.653,4.654-2.536,8.55-5.28,11.52c-1.231-1.648-1.634-4.126-2.4-6.24C48.19,70.156,51.634,69.28,53.054,66.379z M43.454,81.259
		c2,0.24,2.304-1.216,2.4-2.88c1.107-0.147,0.533,1.387,1.44,1.44c2.778-1.542,4.328-4.312,6.72-6.24
		c1.601,10.402-3.373,18.386-7.2,24.96c-1.558-4.682-0.368-12.112-1.92-16.8c-0.427,0.295-0.859,0.58-0.96,0
		c-3.932,3.003-0.899,10.529-2.88,14.88c-4.052-6.508-8.447-12.673-10.08-21.6c1.384-0.973,5.194,3.697,7.68,4.8
		c1.79,0.51,0.76-1.8,2.4-1.44C41.894,79.299,41.619,81.335,43.454,81.259z M30.974,65.419c3.233,2.686,7.009,4.831,11.04,6.72
		c-0.99,1.729-2.128,3.312-2.4,5.76c-4.513-1.407-7.181-4.659-10.08-7.68C29.79,68.395,31.033,67.558,30.974,65.419z
		 M14.174,153.259c0.072-1.192-0.248-1.992-0.96-2.4c1.322-2.129,8.028-6.957,9.12-1.92
		C18.903,149.668,16.989,151.915,14.174,153.259z M20.894,138.379c-6.905-8.289-8.175-23.544-2.88-34.56
		C23.704,112.369,26.332,128.784,20.894,138.379z M33.374,110.06c-0.979-0.142-0.941-1.299-1.92-1.44
		c-1.05,0.071-1.031,1.209-0.96,2.4c-1.509,0.069-1.649-1.231-1.92-2.4c-1.99-0.55-1.87,1.01-3.36,0.96
		c-1.382-0.567-0.516-3.038-0.96-3.36c0.071-1.049,1.209-1.03,2.4-0.96c0.208-2.468-1.014-1.266-1.92-1.92
		c0.981-1.745,1.263-2.008,1.44-3.84c1.405,0.194,1.945,1.255,2.88,1.92c0.98-0.621,0.873-2.327,2.88-1.92
		c-0.57,2.009,0.73,2.149,2.4,1.92c0.081,1.201-0.737,1.502-1.44,1.92c0.89,1.67,3.508,1.611,3.36,4.32
		C33.829,106.995,34.414,109.339,33.374,110.06z M39.134,101.899c-4.413-4.194-11.132-7.226-12.96-14.4
		c1.795-0.285,3.409-0.751,3.36-2.88c0.028-2.644-3.392-1.392-4.32-1.92c-0.049-5.809-0.643-12.163,2.88-14.4
		c0.408-0.088,0.453,0.187,0.48,0.48c1.154,7.695,3.643,13.98,6.72,19.68c3.085,5.715,7.792,10.622,8.16,17.28
		C40.984,106.132,40.718,103.405,39.134,101.899z M43,129.739c0-0.48,0-0.96,0-1.44C47,125.818,47,132.221,43,129.739z M43,122.06
		c0-0.64,0-1.28,0-1.92c1-0.66,2.87-0.835,2.88,0.48C46.159,122.338,44,122.079,43,122.06z M44.894,113.899
		c-0.153-1.113,0.077-1.843,0.48-2.4c1.221,0.059,1.861,0.698,1.92,1.92C46.162,114.124,46.401,114.433,44.894,113.899z
		 M60.254,83.659c-2.118-0.198-3.709,0.13-4.8,0.96c-0.224,2.624,2.27,2.53,3.36,3.84c-2.026,11.094-11.903,14.337-16.32,23.04
		c0.305-5.887,4.59-10.61,7.2-15.84c3.676-7.367,6.283-15.035,6.72-24.48c-0.712-0.209,0.189-0.614,0-1.44
		C60.915,71.159,60.328,77.665,60.254,83.659z M69.374,152.299c3.05,0.873,6.113,1.184,9.6,0.48
		C79.162,157.203,68.812,156.65,69.374,152.299z"/>
	<path d="M201.374,135.02c-0.156-3.356,0.038-6.791,0-10.08c-0.203-17.726-9.683-33.021-12-48c-6.078-2.883-11.242-6.678-17.28-9.6
		c-1.466,4.934-6.058,6.743-9.6,9.6c-5.368-1.672-7.056-7.024-11.04-10.08c-0.811,0.789-0.596,2.604-1.44,3.36
		c-8.141,1.779-10.359,9.48-17.28,12.48c-5.761,20.302-1.103,45.436-10.56,61.92c0.75,1.641,1.119,2.234,0.48,4.32
		c4.633,0.327,8.137,1.783,11.52,3.36c-0.154-1.754,1.292-1.908,2.4-2.4c-0.635-5.183,1.218-8.46,1.92-12
		c1.824-9.202,0.774-20.245,4.32-26.4c2.442,13.471,0.894,25.449-1.92,37.92c4.156,3.684,10.173,5.507,17.28,6.24
		c-0.2-7.08,1.562-12.198,4.32-16.32c2.513,4.687,4.51,9.89,4.8,16.8c3.786-2.902,15.44-5.299,16.8-10.08
		c1.175-4.129-3.726-8.444-0.96-12.96c-3.212-5.32-2.283-17.487,0-23.04c8.745,10.958,4.579,32.774,6.72,46.08
		c3.152,1.808,8.735,0.912,11.04-0.96C202.667,150.521,201.711,142.268,201.374,135.02z M133.694,150.379
		c-2.069,0.038-4.819-3.099-9.12-2.4C125.169,142.497,135.265,146.706,133.694,150.379z M178.334,89.899
		c-2.375,0.665-4.178,1.902-7.2,1.92c0.926-5.66,5.198-12.063,4.32-21.12C181.803,72.787,178.163,83.604,178.334,89.899z
		 M172.574,68.779c5.744,3.888-1.408,9.915-4.32,12.48c-1.963-0.437-1.613-3.187-3.36-3.84
		C167.462,74.548,171.125,72.771,172.574,68.779z M151.934,68.779c3.255,2.505,4.689,6.831,9.12,8.16
		c-0.642,2.078-2.433,3.007-2.88,5.28C153.762,79.999,147.606,73.966,151.934,68.779z M150.014,76.455L150.014,76.455
		c1.919,1.375,3.234,4.026,5.037,5.725c0.002,0.002,0.005,0.005,0.007,0.007c0.212,0.199,0.434,0.379,0.661,0.548
		c0.301,0.224,0.614,0.425,0.949,0.582c0.073,0.034,0.151,0.057,0.227,0.087c0.327,0.133,0.667,0.24,1.034,0.294
		c0.516,0.076,1.073,0.066,1.684-0.049c0.125,1.475,1.042,2.351,1.44,3.351c0.93,0,1.859,0,2.789,0c0.649,0,1.032-0.409,1.231-1.049
		c-0.02-0.03-0.04-0.061-0.043-0.063c0.006-0.028-0.031-0.164-0.031-0.193c0-0.004,0-0.009,0-0.014c0-0.093,0-0.189,0-0.291
		c0-0.001,0-0.002,0-0.003c0,0,0-0.001,0-0.002c0-0.001,0-0.002,0-0.003c0-0.002,0-0.005,0-0.007c0-0.186,0.081-0.384,0.147-0.591
		c0-0.087,0.001-0.173,0.001-0.269c0.005-0.028-0.005-0.056-0.016-0.084C165.071,84.44,165,84.45,165,84.461
		c0-0.002,0-0.004,0-0.007v0c0-0.012,0-0.022,0-0.034c0-0.004,0-0.008,0-0.012v0v0c0,0.004,0,0.007,0,0.012c0,0.012,0,0.022,0,0.034
		c0-0.031,0.058-0.062,0.113-0.092c-0.003-0.013-0.011-0.025-0.011-0.038c-0.004-0.105-0.052-0.214-0.079-0.323
		c-0.002,0-0.004,0-0.006,0c-0.001,0-0.001,0-0.002,0s-0.001,0-0.002,0c0,0-0.001,0-0.001,0s-0.001,0-0.001,0
		c-0.004,0-0.01,0-0.01,0v-0.1v0v-0.01v-0.001v-0.062c0-0.022,0-0.042,0-0.062c0-0.001,0-0.001,0-0.002c0-0.001,0-0.002,0-0.003
		c0-0.003,0-0.007,0-0.011c0-0.001,0-0.003,0-0.004c0-0.008,0-0.019,0-0.026c0-0.004,0-0.008,0-0.011c0-0.031,0-0.052,0-0.054v0v0
		c0-0.001,0-0.001,0-0.002c0.007,0,0.01,0.351,0.017,0.351c0.021,0,0.065,0,0.106,0c0.029,0,0.055,0,0.054,0
		c0.002,0-0.177-0.35-0.177-0.349c0-0.001,0-0.001,0-0.002c0,0.001,0,0.001,0,0.002c0-0.001,0-0.001,0-0.002
		c0,0.029,0.351,0.047,0.432,0.065c0.002,0,0.098,0.001,0.1,0.001c0.046,0.008,0.123,0.016,0.139,0.022
		c0.052,0.009,0.128,0.015,0.18,0.021c2.561-0.451,5.321-4.167,7.812-6.247c0.038-0.032,0.187-0.067,0.225-0.098
		c-0.004,0.003,0.048-0.2,0.044-0.197c0.004-0.004,0.051-0.218,0.055-0.218c0,0,0.006,0,0.006,0s0.003,0,0.002,0
		c0,0,0.004,0,0.004,0s0,0.418,0,0.419c0,0.005,0,0.009,0,0.014c0.005-0.004,0.009-0.009,0.014-0.014
		c0.004,0.109-0.002,0.219-0.001,0.329c0.003,0.036,0.003,0.072,0.002,0.108c-0.005,0.17-0.015,0.339-0.015,0.509
		c0,0.004,0,0.009,0,0.013c0,0.075,0,0.15,0,0.225c0,0,0,0.001,0,0.002c0,0.092,0,0.183,0,0.275c0,0.003,0,0.006,0,0.009
		c0,0.112-0.02,0.223-0.04,0.334c-0.004,0.183-0.009,0.366-0.034,0.549c-0.003,0.023,0.013,0.046,0.027,0.069
		c0.04-0.333,0.072-0.665,0.092-0.998c-0.02,0.333-0.052,0.666-0.091,0.999c0.021,0.035,0.046,0.069,0.046,0.104
		c0,0,0,0.001,0,0.002s0,0.001,0,0.001c0,0.003-0.031,0.008-0.061,0.012c-0.667,5.27-3.727,10.467-5.989,14.673
		c0.019,0.018,0.031,0.039,0.05,0.056c0,0,0,0.308,0,0.308s-0.006,0-0.007,0c0.003,0,0.004-0.303,0.007-0.302c0,0,0,0.001,0,0.001
		c0-0.001-0.031-0.001-0.062-0.002c-0.025,0.001-0.05,0.155-0.049,0.155C167.89,94.851,167.89,95,167.891,95c0,0-0.005,0-0.005,0
		c0.002,0,0.114-0.149,0.114-0.148l0,0l0,0v-0.076c0-0.001,0-0.041,0-0.042c0,0.001,0-0.035,0-0.034c0,0,0-0.001,0-0.001
		c0-0.073-0.23-0.161-0.29-0.238c-0.242-0.18-0.424-0.371-0.5-0.571c-0.071-0.131-0.158-0.265-0.207-0.402
		c-0.063-0.121,0.013-0.234-0.047-0.358c-0.033-0.067,0.044-0.131,0.044-0.196c0,0.001,0,0.002,0,0.003
		c0,0.069-0.13,0.139-0.099,0.208c0.026,0.006-0.042,0.013-0.039,0.02c0.061,0.138,0.057,0.274,0.1,0.408
		c0.267,0.518,0.566,1,0.993,1.418c0.024,0.014,0.019,0.029,0.045,0.043c0,0.016,0,0.037,0,0.037
		c-0.009-0.008-0.015-0.019-0.023-0.027c-0.027,0.009-0.072,0.019-0.064,0.027c-0.001,0.002-0.13-0.122-0.131-0.12
		c0.001-0.002,0.015,0.122,0.016,0.12c-0.01-0.011-0.018-0.025-0.028-0.037c-0.085-0.097-0.148-0.215-0.226-0.319
		c-0.285-0.254-0.423-0.526-0.522-0.812c-0.128-0.24-0.257-0.481-0.369-0.737c-0.008-0.018-0.018-0.033-0.026-0.05
		c0.011,0.051,0.026,0.104,0.036,0.121c-0.014-0.031-0.024-0.067-0.038-0.099c0.007,0.042,0.014,0.084,0.021,0.099
		c-0.141-0.31-0.27-0.647-0.394-0.993c0-0.001-0.001-0.002-0.001-0.004c-0.049-0.125-0.094-0.252-0.141-0.378
		c0,0.001,0.001,0.003,0.002,0.005c-0.011-0.024-0.02-0.047-0.03-0.071c-0.005-0.013-0.01-0.026-0.015-0.039
		c-0.029-0.061-0.059-0.122-0.088-0.183c-0.321-0.661-0.683-1.324-0.858-1.953c-0.032-0.081-0.043-0.16-0.062-0.239
		c-0.035-0.095-0.057-0.189-0.057-0.282c0-0.001,0-0.003,0-0.005c0,0.094,0.033,0.191,0.057,0.287
		c0.006,0.017,0.017,0.035,0.024,0.053c-0.023-0.108-0.057-0.218-0.065-0.324c-0.019-0.04-0.034-0.083-0.052-0.124
		c-0.014-0.009-0.03-0.019-0.035-0.027c-0.002-0.004-0.071-0.01-0.073-0.015c-0.086-0.173-0.296-0.335-0.393-0.5
		c-0.021-0.036,0.002-0.073,0.032-0.11c0.005-0.03,0.03-0.06,0.055-0.089c-0.026-0.047-0.052-0.093-0.08-0.139
		c-0.085-0.035-0.229-0.069-0.47-0.102c0,0,0-0.002,0-0.002v-0.055c0,0,0,0-0.001,0c-0.554,0.043-0.936,0.017-1.261,0.038
		c0,0,0,0-0.001,0c-0.021,0.007-0.043,0.017-0.064,0.017c0,0-0.001,0-0.001,0c-0.016,0-0.032,0.02-0.048,0.022
		c-0.09,0.014-0.179,0.038-0.271,0.041c-0.33,0-0.696-0.063-1.242-0.063c-0.001,0-0.029,0-0.03,0c0,0-0.014,0-0.014,0h-0.006
		c0.055,0,0.1-0.211,0.151-0.19c-0.053-0.021-0.096-0.256-0.151-0.3c0,0,0,0,0,0l0,0c0,0-0.001,0.173-0.001,0.226
		c0,0.01,0.001,0.024,0.001,0.024c-0.002-0.001-0.004,0.241-0.006,0.241c0,0-0.001,0-0.001,0c-0.161,0-0.311,0.087-0.454,0.219
		c-0.058,0.054-0.115,0.114-0.171,0.183c-0.261,0.321-0.495,0.776-0.709,1.167c-0.18,0.329-0.334,0.558-0.487,0.914
		c-0.038,0.087-0.083,0.104-0.119,0.192c-0.013,0.031-0.023,0.061-0.036,0.09c-0.029,0.091-0.057,0.183-0.091,0.273
		C158.98,91.054,159,91.07,159,91.086c0,0.001,0,0.002,0,0.003c0,0,0,0.001,0,0.001c0,0.021-0.047,0.042-0.055,0.062
		c-0.045,0.123-0.104,0.248-0.148,0.371c0.004-0.013,0.009-0.025,0.013-0.038c-0.001,0.002-0.002,0.005-0.003,0.007
		c-0.068,0.164-0.136,0.329-0.192,0.497c-0.002,0.007-0.005,0.013-0.007,0.02c-0.046,0.142-0.089,0.287-0.132,0.431
		c-0.018,0.059-0.036,0.117-0.054,0.176c-0.088,0.292-0.178,0.584-0.262,0.881c-0.08,0.282-0.158,0.566-0.236,0.85
		c-0.013,0.047-0.026,0.095-0.04,0.142c-0.063,0.23-0.126,0.459-0.189,0.689l0,0v0c-0.042-0.052-0.081-0.107-0.123-0.16
		c-0.281-0.354-0.556-0.713-0.827-1.076c-0.012-0.016-0.024-0.032-0.037-0.047c-0.003-0.003-0.005-0.007-0.008-0.011
		c-0.082-0.109-0.163-0.219-0.244-0.33c-0.013-0.017-0.025-0.033-0.038-0.05c-0.31-0.425-0.614-0.856-0.91-1.296
		c-0.075-0.111-0.147-0.226-0.222-0.338c-0.266-0.405-0.526-0.817-0.778-1.237c-0.039-0.065-0.08-0.13-0.119-0.195
		c-0.013-0.021-0.026-0.042-0.039-0.063c-0.182-0.309-0.351-0.63-0.524-0.948c-0.062-0.115-0.126-0.131-0.189-0.175
		c0.071,0.102,0.142,0.204,0.189,0.292c-0.096-0.177-0.283-0.23-0.376-0.409c-0.064-0.123-0.214-0.136-0.276-0.136H153
		c0,0,0-0.463,0-0.47c0,0,0-0.001,0-0.002c0-0.307-0.128-0.626-0.275-0.941c-0.099-0.211-0.119-0.415-0.213-0.63
		c-0.033-0.074-0.02-0.151-0.052-0.226c-0.129-0.301-0.225-0.615-0.345-0.925c-0.08-0.206-0.156-0.404-0.233-0.613
		c-0.027-0.074-0.049-0.147-0.076-0.221c-0.014-0.037-0.025-0.073-0.039-0.11c-0.021-0.058-0.035-0.121-0.056-0.179
		c-0.178-0.514-0.347-1.037-0.502-1.575c-0.037-0.129-0.072-0.26-0.108-0.391c-0.171-0.625-0.332-1.261-0.469-1.919
		c0-0.003-0.001-0.006-0.002-0.009c0-0.003-0.001-0.007-0.002-0.011c-0.125-0.603-0.23-1.227-0.325-1.86
		c-0.024-0.157-0.046-0.316-0.068-0.475C150.146,77.795,150.068,77.137,150.014,76.455L150.014,76.455z M165,85L165,85L165,85z
		 M148.094,71.659c1.327,5.638,2.483,14.081,5.28,19.68c-2.578,1.145-5.124-1.485-7.68-1.92
		C145.048,83.347,144.835,75.239,148.094,71.659z M151.454,135.979c-2.686-0.515-5.753-0.647-7.68-1.92
		c-0.34-1.78,0.82-2.06,0.48-3.84c3.229,0.291,6.153,0.888,8.16,2.4C152.333,133.979,151.534,134.62,151.454,135.979z
		 M148.094,95.659c1.611-1.429,3.5-2.58,5.76-3.36c2.889,4.61,8.77,10.335,6.72,16.8
		C156.418,104.615,150.772,101.621,148.094,95.659z M164.414,128.779c-1.357,0.396-1.244-0.676-2.4-0.48
		C161.629,124.201,166.524,125.51,164.414,128.779z M164.414,119.659c-1.532,0.412-1.485-0.755-2.4-0.96
		c0.212-1.388,1.012-2.188,2.4-2.4C165.352,117.612,165.352,118.346,164.414,119.659z M159.134,114.859
		c2.846-8.194,6.782-15.298,10.56-22.56c2.409,0.631,4.1,1.98,6.24,2.88C172.719,104.124,165.379,108.945,159.134,114.859z
		 M181.694,134.06c-2.099,1.101-4.807,1.592-7.2,2.4c-0.804-0.796-0.382-2.818-0.48-4.32
		C177.073,131.933,182.098,128.47,181.694,134.06z M191,155.179c0-0.64,0-1.28,0-1.92c3,0.899,5.378,0.234,8.16,0
		C199.033,156.434,194,155.909,191,155.179z"/>
</g>
</svg>
