<?xml version="1.0" encoding="utf-8"?>
<!-- Generator: Adobe Illustrator 15.0.2, SVG Export Plug-In . SVG Version: 6.00 Build 0)  -->
<!DOCTYPE svg PUBLIC "-//W3C//DTD SVG 1.1 Basic//EN" "http://www.w3.org/Graphics/SVG/1.1/DTD/svg11-basic.dtd">
<svg version="1.1" baseProfile="basic" id="Layer_1"
	 xmlns="http://www.w3.org/2000/svg" xmlns:xlink="http://www.w3.org/1999/xlink" x="0px" y="0px" width="800px" height="600px"
	 viewBox="0 0 800 600" xml:space="preserve">
<path fill-rule="evenodd" clip-rule="evenodd" d="M170.174,1.579c-0.054,1.227-0.88,1.68-1.44,2.4
	c0.119,0.521,0.955,0.325,0.96,0.96c1.508,0.228,1.961-0.599,2.4-1.44c1.346,0.767-0.674,2.16,0,3.84
	c1.812,0.212,2.253-0.947,3.36-1.44c1.599,0.32,2.606,1.234,2.4,3.36c-1.31,0.35-0.966-0.954-1.92-0.96
	c-0.586,0.842,0.525,3.346-0.48,4.8c1.489,0.05,1.37-1.51,3.36-0.96c0.634,2.715-1.776,2.384-2.4,3.84
	c3.898,3.346,3.986-4.806,8.16-4.32c0.674,2.795,2.623,4.758,1.92,8.16c0.678,0.955,1.551-1.937,3.84-0.96
	c0.589,0.851,0.35,2.53,1.44,2.88c0.142,1.902-0.586,2.934-1.44,3.84c1.127,1.407,2.891,1.438,3.84,1.92
	c-1.883,3.397-4.253,6.307-8.161,7.68c1.036,0.564,2.205,0.996,3.36,1.44c2.167-0.233,1.495-3.305,4.8-2.4
	c-0.538,1.512-0.044,1.087,0,2.88c-0.459,0.822-1.594,0.967-1.92,1.92c0.729,1.031,2.085,1.434,1.92,3.36
	c-1.173-1.006-1.023-0.686-2.88-0.48c0.899,1.978,0.928,2.809-0.48,4.32c-0.559-0.881-3.132,0.252-2.4-1.92
	c-1.53-0.41-1.822,0.418-2.4,0.96c0.912,2.25,5.693,2.232,3.84,5.76c-1.148-0.611-2.763-2.631-3.36,0
	c-0.762-1.089-1.832-3.578-3.84-1.92c0.115,3.794,2.467,5.777,1.44,9.12c-1.956-2.06-2.843-0.095-5.28-1.92
	c-0.389,0.091-0.479,0.481-0.96,0.48c-0.072,1.192,0.248,1.992,0.96,2.4c-0.598,1.482-2.452,1.721-3.36,0.48
	c-0.341,2.356,2.2,1.829,0.96,3.84c-1.866-0.375-3.823-0.657-4.8-1.92c0.2-2.68,1.269-4.491,1.92-6.72
	c4.717,0.838,6.003-5.657,4.32-8.16c-2.927,0.433-2.422,4.298-3.84,6.24c-0.386-0.254-0.779-0.501-1.44-0.48
	c0.407-6.992,4.036-17.207-5.28-16.8c-1.965,0.086-3.191,2.359-6.24,2.4c-2.616-1.77-6.368-1.499-9.6-0.48
	c-4.391,4.833,1.16,10.032,0,16.32c-3.253,0.373-2.102-3.659-4.32-4.32c-1.68,3.621,0.803,8.642,4.8,6.72
	c0.825,1.575,1.513,3.287,1.44,5.76c-1.992-0.249-4.936,0.456-4.8-1.92c-0.64,0-1.28,0-1.92,0c-1.041-0.081-0.217,1.703-0.48,2.4
	c-2.638,0.557-0.941-3.219-2.88-3.36c-0.227-1.507,1.292-1.268,1.44-2.4c-0.669-0.771-2.369-0.511-2.88-1.44
	c-1.244,0.516-1.785,1.735-3.36,1.92c-0.725-2.645,1.291-2.549,0.96-4.8c0.861-0.061,1.012,0.587,1.92,0.48
	c0.037-2.943-2.956-3.104-1.44-6.24c-2.756,2.318-6.882,0.439-4.8-2.4c-2.424-1.765-4.544,0.882-6.24,1.44
	c0.648-1.271-0.407-4.247,1.92-3.84c0.135-1.255-0.175-2.065-1.44-1.92c2.473-1.198,4.643-0.579,6.24-1.92
	c0.147-1.107-1.387-0.534-1.44-1.44c0.045-2.345,1.94-1.413,2.88-1.92c-1.628-0.905-2.276-2.051-1.44-4.32
	c-0.06-1.06-2.036-0.204-2.88-0.48c0.078-0.558-0.106-0.854-0.48-0.96c0.967-1.753,2.131-3.309,3.36-4.8
	c-0.983-1.112-3.031-1.447-4.32-0.96c0.921-3.99-0.246-5.842,2.4-9.12c1.478,0.336,0.922,0.336,2.4,0
	c0.484,0.956,0.83,2.05,1.92,2.4c0.386-0.254,0.779-0.501,1.44-0.48c-1.067-2.71,1.05-3.067,0.96-4.8c0.64,0,1.28,0,1.92,0
	c0.476,1.284,0.989,2.531,0.96,4.32c0.599,1.35,1.967,1.586,3.36,0.96c0.061-0.861-0.587-1.013-0.48-1.92
	c0.558,0.078,0.854-0.106,0.96-0.48c2.048,0.191,1.577,2.903,4.32,2.4c-1.771-1.418-2.566-7.576,0.96-7.68
	c0.125,1.405-1.085,1.475-0.96,2.88c1.82,0.42,3.344,1.136,4.32,2.4c0.775,0.135,0.826-0.454,1.44-0.48
	c-0.869-2.415,0.925-4.51-1.44-5.28c0.384-3.071,2.94-0.2,4.32,0c-0.463-0.977-0.012-2.504,0.48-4.8
	C165.018,3.057,165.69-0.331,170.174,1.579z"/>
<path fill-rule="evenodd" clip-rule="evenodd" d="M57.374,42.859c-1.554,1.646-3.308,3.092-3.36,6.24
	c-3.077,1.16-6.469,0.972-9.12-0.48c0.14-2.54-1.242-3.558-0.96-6.24c-1.478-0.336-0.923-0.336-2.4,0
	c-1.358,1.202-1.192,3.928-1.92,5.76c-2.459,1.427-6.539,0.993-9.12,0c-1.024-2.016-0.576-5.503-2.88-6.24
	c3.412-4.863,10.637-1.146,16.8-0.96C49.164,41.083,54.12,39.773,57.374,42.859z M31.454,42.379c-0.376,2.136,0.639,2.881,0.48,4.8
	c1.76,0,3.52,0,5.28,0c1.277-1.123,1.457-3.343,1.92-5.28C36.363,40.965,33.573,40.734,31.454,42.379z M46.334,42.379
	c0,1.76,0,3.52,0,5.28c1.754,0.326,3.49,0.67,5.76,0.48c0.766-1.314,1.26-2.9,1.44-4.8C51.285,42.573,49.126,41.287,46.334,42.379z"
	/>
<path fill-rule="evenodd" clip-rule="evenodd" fill="#FFFFFF" d="M39.134,41.899c-0.463,1.937-0.643,4.157-1.92,5.28
	c-1.76,0-3.52,0-5.28,0c0.159-1.919-0.856-2.664-0.48-4.8C33.573,40.734,36.363,40.965,39.134,41.899z"/>
<path fill-rule="evenodd" clip-rule="evenodd" fill="#FFFFFF" d="M53.534,43.339c-0.18,1.9-0.674,3.486-1.44,4.8
	c-2.27,0.19-4.006-0.154-5.76-0.48c0-1.76,0-3.52,0-5.28C49.126,41.287,51.285,42.573,53.534,43.339z"/>
<path fill-rule="evenodd" clip-rule="evenodd" fill="#FFFFFF" d="M30.974,65.419c3.233,2.686,7.009,4.831,11.04,6.72
	c-0.99,1.729-2.128,3.312-2.4,5.76c-4.513-1.407-7.181-4.659-10.08-7.68C29.79,68.395,31.033,67.558,30.974,65.419z"/>
<path fill-rule="evenodd" clip-rule="evenodd" fill="#FFFFFF" d="M53.054,66.379c4.653,4.654-2.536,8.55-5.28,11.52
	c-1.231-1.648-1.634-4.126-2.4-6.24C48.19,70.156,51.634,69.28,53.054,66.379z"/>
<path fill-rule="evenodd" clip-rule="evenodd" fill="#FFFFFF" d="M28.094,68.299c0.408-0.088,0.453,0.187,0.48,0.48
	c1.154,7.695,3.643,13.98,6.72,19.68c3.085,5.715,7.792,10.622,8.16,17.28c-2.47,0.393-2.736-2.334-4.32-3.84
	c-4.413-4.194-11.132-7.226-12.96-14.4c1.795-0.285,3.409-0.751,3.36-2.88c0.028-2.644-3.392-1.392-4.32-1.92
	C25.165,76.89,24.571,70.536,28.094,68.299z"/>
<path fill-rule="evenodd" clip-rule="evenodd" fill="#FFFFFF" d="M161.054,76.939c-0.642,2.078-2.433,3.007-2.88,5.28
	c-4.412-2.221-10.567-8.253-6.24-13.44C155.189,71.284,156.624,75.61,161.054,76.939z"/>
<path fill-rule="evenodd" clip-rule="evenodd" fill="#FFFFFF" d="M172.574,68.779c5.744,3.888-1.408,9.915-4.32,12.48
	c-1.963-0.437-1.613-3.187-3.36-3.84C167.462,74.548,171.125,72.771,172.574,68.779z"/>
<path fill-rule="evenodd" clip-rule="evenodd" fill="#FFFFFF" d="M56.414,69.739c4.5,1.419,3.914,7.926,3.84,13.92
	c-2.118-0.198-3.709,0.13-4.8,0.96c-0.224,2.624,2.27,2.53,3.36,3.84c-2.026,11.094-11.903,14.337-16.32,23.04
	c0.305-5.887,4.59-10.61,7.2-15.84c3.676-7.367,6.283-15.035,6.72-24.48C55.702,70.97,56.603,70.565,56.414,69.739z"/>
<path fill-rule="evenodd" clip-rule="evenodd" fill="#FFFFFF" d="M175.454,70.699c6.349,2.088,2.709,12.905,2.88,19.2
	c-2.375,0.665-4.178,1.902-7.2,1.92C172.06,86.159,176.332,79.756,175.454,70.699z"/>
<path fill-rule="evenodd" clip-rule="evenodd" fill="#FFFFFF" d="M148.094,71.659c1.327,5.638,2.483,14.081,5.28,19.68
	c-2.578,1.145-5.124-1.485-7.68-1.92C145.048,83.347,144.835,75.239,148.094,71.659z"/>
<path fill-rule="evenodd" clip-rule="evenodd" fill="#FFFFFF" d="M54.014,73.579c1.601,10.402-3.373,18.386-7.2,24.96
	c-1.558-4.682-0.368-12.112-1.92-16.8c-0.427,0.295-0.859,0.58-0.96,0c-3.932,3.003-0.899,10.529-2.88,14.88
	c-4.052-6.508-8.447-12.673-10.08-21.6c1.384-0.973,5.194,3.697,7.68,4.8c1.79,0.51,0.76-1.8,2.4-1.44
	c0.84,0.92,0.565,2.956,2.4,2.88c2,0.24,2.304-1.216,2.4-2.88c1.107-0.147,0.533,1.387,1.44,1.44
	C50.072,78.277,51.622,75.507,54.014,73.579z"/>
<path fill-rule="evenodd" clip-rule="evenodd" fill="#FFFFFF" d="M167.774,94.699c-1.658-1.862-1.993-5.047-3.36-7.2
	c-1.756,0.104-1.841,0.659-3.36,0c-1.864,1.816-2.566,4.794-3.36,7.68c-3.913-4.887-7.027-10.572-7.68-18.72
	c3.195,2.291,4.715,8.12,9.6,7.2c0.125,1.475,1.042,2.159,1.44,3.36c0.96,0,1.92,0,2.88,0c1.236-0.364,1.667-1.532,1.44-3.36
	c3.304,1.174,6.054-3.796,8.64-6.24C174.233,83.562,170.402,89.806,167.774,94.699z"/>
<path fill-rule="evenodd" clip-rule="evenodd" fill="#FFFFFF" d="M153.854,92.299c2.889,4.61,8.77,10.335,6.72,16.8
	c-4.155-4.484-9.802-7.478-12.48-13.44C149.705,94.23,151.594,93.079,153.854,92.299z"/>
<path fill-rule="evenodd" clip-rule="evenodd" fill="#FFFFFF" d="M169.694,92.299c2.409,0.631,4.1,1.98,6.24,2.88
	c-3.215,8.945-10.555,13.766-16.8,19.68C161.98,106.665,165.916,99.562,169.694,92.299z"/>
<path fill-rule="evenodd" clip-rule="evenodd" fill="#FFFFFF" d="M26.174,99.5c1.405,0.194,1.945,1.255,2.88,1.92
	c0.98-0.621,0.873-2.327,2.88-1.92c-0.57,2.009,0.73,2.149,2.4,1.92c0.081,1.201-0.737,1.502-1.44,1.92
	c0.89,1.67,3.508,1.611,3.36,4.32c-2.425-0.665-1.84,1.68-2.88,2.4c-0.979-0.142-0.941-1.299-1.92-1.44
	c-1.05,0.071-1.031,1.209-0.96,2.4c-1.509,0.069-1.649-1.231-1.92-2.4c-1.99-0.55-1.87,1.01-3.36,0.96
	c-1.382-0.567-0.516-3.038-0.96-3.36c0.071-1.049,1.209-1.03,2.4-0.96c0.208-2.468-1.014-1.266-1.92-1.92
	C25.715,101.594,25.997,101.332,26.174,99.5z M28.574,106.219c1.792,0.192,2.816-0.383,2.88-1.92c-0.954-0.006-0.611-1.31-1.92-0.96
	C28.719,103.805,28.3,104.666,28.574,106.219z"/>
<path fill-rule="evenodd" clip-rule="evenodd" d="M29.534,103.339c1.31-0.35,0.966,0.954,1.92,0.96
	c-0.064,1.537-1.088,2.112-2.88,1.92C28.3,104.666,28.719,103.805,29.534,103.339z"/>
<path fill-rule="evenodd" clip-rule="evenodd" fill="#FFFFFF" d="M18.014,103.819c5.69,8.549,8.318,24.965,2.88,34.56
	C13.989,130.091,12.719,114.835,18.014,103.819z"/>
<path fill-rule="evenodd" clip-rule="evenodd" fill="#FFFFFF" d="M45.374,111.5c1.221,0.059,1.861,0.698,1.92,1.92
	c-1.132,0.705-0.893,1.013-2.4,0.48C44.741,112.786,44.971,112.057,45.374,111.5z"/>
<path fill-rule="evenodd" clip-rule="evenodd" d="M110.174,116.299c-1.723,0.283-2.322-0.558-3.36-0.96
	C106.406,110.81,111.023,112.671,110.174,116.299z"/>
<path fill-rule="evenodd" clip-rule="evenodd" fill="#FFFFFF" d="M164.414,116.299c0.938,1.313,0.938,2.047,0,3.36
	c-1.532,0.412-1.485-0.755-2.4-0.96C162.226,117.312,163.026,116.511,164.414,116.299z"/>
<path fill-rule="evenodd" clip-rule="evenodd" d="M113.534,130.699c-4.22-0.9-2.8-7.439-6.24-9.12
	c0.608-7.652,13.389-1.638,8.16,2.88c-0.358,1.478,1.317,0.922,0.96,2.4C116.336,129.021,113.864,128.789,113.534,130.699z"/>
<path fill-rule="evenodd" clip-rule="evenodd" fill="#FFFFFF" d="M45.854,120.619c0.279,1.719-1.421,1.459-2.88,1.44
	c0-0.64,0-1.28,0-1.92C43.589,119.479,45.844,119.304,45.854,120.619z"/>
<path fill-rule="evenodd" clip-rule="evenodd" fill="#FFFFFF" d="M164.414,128.779c-1.357,0.396-1.244-0.676-2.4-0.48
	C161.629,124.201,166.524,125.51,164.414,128.779z"/>
<path fill-rule="evenodd" clip-rule="evenodd" fill="#FFFFFF" d="M43.454,129.739c0-0.48,0-0.96,0-1.44
	C46.934,125.818,46.934,132.221,43.454,129.739z"/>
<path fill-rule="evenodd" clip-rule="evenodd" d="M98.654,130.219c-0.076,2.183-1.607,4.867-3.84,3.36
	c1.094,4.026,5.903,4.337,7.68,7.68c-0.78,2.739-3.091,3.948-4.32,6.24c-1.685,1.089-1.579-1.012-2.88,0
	c-1.648,1.68,0.419,3.716,1.92,3.84c-2.019,3.628,2.618,4.891,2.4,8.16c-0.255,3.836-5.789,5.456-8.64,1.92
	c-0.844,0.438-0.878,1.683-1.44,2.4c2.761,1.212,3.379,6.662,0,7.68c-3.616,0.318-3.51-1.204-6.72-0.479
	c-0.748-1.012-0.858-2.662-2.4-2.88c1.994-0.868,5.923-0.601,5.76-4.8c-1.574-2.346-2.61-4.889-0.96-7.2
	c3.447-0.073,7.059,0.019,8.16-2.4c-1.739-1.301-4.531-1.549-5.76-3.36c-0.663-6.727,3.402-7.974,8.16-5.76
	c0.138-1.782,1.71-2.13,1.92-3.84c-0.091-0.389-0.481-0.479-0.48-0.96c-1.957-0.356-1.653,1.547-3.84,0.96
	c-0.379-2.341-1.657-3.783-2.88-5.28C90.308,131.847,94.565,126.581,98.654,130.219z"/>
<path fill-rule="evenodd" clip-rule="evenodd" fill="#FFFFFF" d="M144.254,130.219c3.229,0.291,6.153,0.888,8.16,2.4
	c-0.081,1.36-0.88,2-0.96,3.36c-2.686-0.515-5.753-0.647-7.68-1.92C143.434,132.279,144.594,132,144.254,130.219z"/>
<path fill-rule="evenodd" clip-rule="evenodd" fill="#FFFFFF" d="M181.694,134.06c-2.099,1.101-4.807,1.592-7.2,2.4
	c-0.804-0.796-0.382-2.818-0.48-4.32C177.073,131.933,182.098,128.47,181.694,134.06z"/>
<path fill-rule="evenodd" clip-rule="evenodd" d="M100.574,134.06c1.113-0.153,1.843,0.077,2.4,0.48
	c-0.271,1.169-0.411,2.469-1.92,2.4C100.416,135.926,101.291,135.521,100.574,134.06z"/>
<path fill-rule="evenodd" clip-rule="evenodd" d="M42.494,141.259c3.401,3,2.094,10.707,2.4,16.8
	c6.876,4.575,11.196-2.712,16.8-3.84c4.631,35.389,4.757,69.139,3.36,104.64c-4.876-1.089-11.049,3.182-15.36,0
	c-2.332-2.874,0.989-6.27,1.44-10.56c0.604-5.753-1.411-12.118-1.44-18.24c-0.042-8.824,2.381-17.977,1.44-26.88
	c-1.312-12.408-5.542-22.701-8.16-32.641c-5.342,16.821-9.362,42.188-6.24,64.801c0.487,3.526,2.192,7.048,2.4,10.56
	c0.275,4.644-1.242,8.137,0,12.479c-3.44,4.388-11.921,1.598-16.8,0.48c2.323-6.235,1.169-15.143-0.48-23.04
	c-1.419-6.795-0.493-13.944-0.96-21.12c-0.497-7.633-2.403-20.824-1.44-31.2c0.518-5.589,2.175-10.495,1.92-15.84
	c-0.3-6.274-3.814-12.116,0.96-16.8c5.472,2.848,7.596,9.044,16.8,8.16C43.005,155.851,41.354,147.159,42.494,141.259z"/>
<path fill-rule="evenodd" clip-rule="evenodd" d="M161.534,142.699c4.014,2.386,3.265,9.535,4.32,14.88
	c6.859-1.46,11.342-5.297,16.8-8.16c-0.134,20.914,1.628,42.333,1.92,62.88c0.167,11.776-2.082,23.358-1.92,34.56
	c0.052,3.599,2.417,6.828,0.96,10.56c-4.748,1.905-11.373,5.101-16.32,1.44c0.389-6.775,2.218-16.521,2.88-25.92
	c0.419-5.953-2.356-11.576-2.4-17.76c-0.017-2.401,0.784-4.787,0.96-7.2c1.104-15.163-3.487-29.052-6.72-41.76
	c-4.156,12.007-4.857,27.398-5.76,43.68c3.564,14.318-0.947,35.677,1.92,48.479c-4.382,4.192-12.463,1.199-18.24,0
	c-0.968-3.567,1.816-5.403,2.4-8.64c0.716-3.975-0.902-7.805-0.96-12c-0.028-1.992,0.789-3.751,0.96-5.76
	c0.754-8.833-3.197-17.65-3.36-26.88c-0.083-4.711,1.213-9.899,1.44-14.88c0.702-15.446-0.007-24.617,2.4-37.44
	c5.062,1.658,9.302,4.138,16.32,3.84C159.648,151.694,160.468,147.074,161.534,142.699z"/>
<path fill-rule="evenodd" clip-rule="evenodd" fill="#FFFFFF" d="M133.694,150.379c-2.069,0.038-4.819-3.099-9.12-2.4
	C125.169,142.497,135.265,146.706,133.694,150.379z"/>
<path fill-rule="evenodd" clip-rule="evenodd" fill="#FFFFFF" d="M22.334,148.939c-3.431,0.729-5.345,2.975-8.16,4.32
	c0.072-1.192-0.248-1.992-0.96-2.4C14.536,148.73,21.242,143.903,22.334,148.939z"/>
<path fill-rule="evenodd" clip-rule="evenodd" fill="#FFFFFF" d="M69.374,152.299c3.05,0.873,6.113,1.184,9.6,0.48
	C79.162,157.203,68.812,156.65,69.374,152.299z"/>
<path fill-rule="evenodd" clip-rule="evenodd" fill="#FFFFFF" d="M191.294,153.259c2.599,0.899,5.378,0.234,8.16,0
	c-0.127,3.174-5.625,2.65-8.16,1.92C191.294,154.54,191.294,153.899,191.294,153.259z"/>
<path fill-rule="evenodd" clip-rule="evenodd" d="M162.494,76.939c3.542-2.857,8.134-4.666,9.6-9.6
	c6.038,2.922,11.203,6.717,17.28,9.6c2.316,14.979,11.796,30.274,12,48c0.038,3.289-0.156,6.724,0,10.08
	c0.338,7.248,1.293,15.501-0.479,20.16c-2.305,1.873-7.888,2.768-11.04,0.96c-2.142-13.306,2.025-35.122-6.72-46.08
	c-2.283,5.553-3.212,17.72,0,23.04c-2.766,4.516,2.135,8.831,0.96,12.96c-1.36,4.781-13.014,7.178-16.8,10.08
	c-0.29-6.911-2.287-12.113-4.8-16.8c-2.758,4.122-4.52,9.24-4.32,16.32c-7.107-0.733-13.124-2.556-17.28-6.24
	c2.814-12.471,4.362-24.449,1.92-37.92c-3.546,6.155-2.496,17.198-4.32,26.4c-0.702,3.54-2.555,6.817-1.92,12
	c-1.108,0.492-2.554,0.646-2.4,2.4c-3.383-1.577-6.887-3.033-11.52-3.36c0.639-2.086,0.27-2.679-0.48-4.32
	c9.457-16.484,4.799-41.618,10.56-61.92c6.92-3,9.139-10.701,17.28-12.48c0.844-0.755,0.629-2.571,1.44-3.36
	C155.438,69.916,157.126,75.267,162.494,76.939z M151.934,68.779c-4.328,5.187,1.828,11.219,6.24,13.44
	c0.447-2.273,2.238-3.202,2.88-5.28C156.624,75.61,155.189,71.284,151.934,68.779z M164.894,77.419
	c1.747,0.653,1.396,3.403,3.36,3.84c2.912-2.565,10.063-8.592,4.32-12.48C171.125,72.771,167.462,74.548,164.894,77.419z
	 M174.014,77.419c-2.586,2.443-5.336,7.414-8.64,6.24c0.228,1.828-0.204,2.997-1.44,3.36c-0.96,0-1.92,0-2.88,0
	c-0.398-1.202-1.315-1.885-1.44-3.36c-4.885,0.92-6.405-4.909-9.6-7.2c0.653,8.147,3.767,13.833,7.68,18.72
	c0.794-2.886,1.496-5.864,3.36-7.68c1.519,0.659,1.604,0.104,3.36,0c1.367,2.153,1.702,5.338,3.36,7.2
	C170.402,89.806,174.233,83.562,174.014,77.419z M171.134,91.819c3.022-0.018,4.825-1.255,7.2-1.92
	c-0.171-6.295,3.469-17.112-2.88-19.2C176.332,79.756,172.06,86.159,171.134,91.819z M145.694,89.419
	c2.556,0.435,5.103,3.065,7.68,1.92c-2.797-5.599-3.954-14.042-5.28-19.68C144.835,75.239,145.048,83.347,145.694,89.419z
	 M148.094,95.659c2.678,5.962,8.325,8.956,12.48,13.44c2.05-6.465-3.831-12.189-6.72-16.8
	C151.594,93.079,149.705,94.23,148.094,95.659z M159.134,114.859c6.246-5.915,13.585-10.735,16.8-19.68
	c-2.141-0.899-3.831-2.249-6.24-2.88C165.916,99.562,161.98,106.665,159.134,114.859z M162.014,118.699
	c0.916,0.205,0.869,1.372,2.4,0.96c0.938-1.313,0.938-2.047,0-3.36C163.026,116.511,162.226,117.312,162.014,118.699z
	 M162.014,128.299c1.157-0.196,1.043,0.876,2.4,0.48C166.524,125.51,161.629,124.201,162.014,128.299z M143.774,134.06
	c1.927,1.273,4.995,1.405,7.68,1.92c0.08-1.36,0.879-2,0.96-3.36c-2.007-1.512-4.931-2.109-8.16-2.4
	C144.594,132,143.434,132.279,143.774,134.06z M174.014,132.139c0.098,1.502-0.324,3.524,0.48,4.32c2.393-0.808,5.102-1.299,7.2-2.4
	C182.098,128.47,177.073,131.933,174.014,132.139z M124.574,147.979c4.301-0.699,7.051,2.438,9.12,2.4
	C135.265,146.706,125.169,142.497,124.574,147.979z M191.294,155.179c2.535,0.73,8.033,1.254,8.16-1.92
	c-2.781,0.234-5.561,0.899-8.16,0C191.294,153.899,191.294,154.54,191.294,155.179z"/>
<path fill-rule="evenodd" clip-rule="evenodd" d="M43.934,71.179c3.751-1.849,6.621-4.579,9.6-7.2
	c3.106,6.494,9.568,9.631,16.32,12.48c3.051,13.384,10.479,27.625,12,43.68c0.677,7.148,0.475,16.956,0,24.96
	c-0.302,5.084-1.312,7.95-2.88,11.52c-4.045,1.204-8.701,0.054-11.04-1.92c-0.952-3.727,0.895-8.086,1.44-12.96
	c1.345-12.029-1.945-24.413-4.8-33.6c-3.811,14.326-3.717,30.453,0,43.68c-6.874,0.903-10.448,8.8-18.72,5.28
	c0.235-7.595-0.114-14.606-2.4-19.68c-3.383,4.617-2.401,13.599-3.84,20.16c-7.799,1.721-11.682-4.203-15.84-7.68
	c-4.076,0.564-6.779,2.5-9.12,4.8c-1.652-0.747-1.438-3.361-4.32-2.88c-1.067-8.387-7.751-17.282-9.12-27.36
	c-1.068-7.861,2.122-19.605,3.84-28.8c1.095-5.858,3.557-14.284,7.2-16.8c1.472-1.016,3.557-0.733,4.8-1.44
	c5.213-2.964,6.592-8.581,12.48-11.04c-0.38-1.66,0.534-2.026,0.96-2.88C34.477,66.557,38.147,69.926,43.934,71.179z M29.534,70.219
	c2.899,3.021,5.567,6.273,10.08,7.68c0.271-2.449,1.41-4.031,2.4-5.76c-4.031-1.889-7.806-4.034-11.04-6.72
	C31.033,67.558,29.79,68.395,29.534,70.219z M45.374,71.659c0.766,2.114,1.168,4.592,2.4,6.24c2.744-2.97,9.933-6.866,5.28-11.52
	C51.634,69.28,48.19,70.156,45.374,71.659z M25.214,82.699c0.928,0.528,4.348-0.724,4.32,1.92c0.049,2.129-1.565,2.595-3.36,2.88
	c1.828,7.174,8.547,10.206,12.96,14.4c1.584,1.505,1.85,4.232,4.32,3.84c-0.369-6.658-5.075-11.564-8.16-17.28
	c-3.078-5.7-5.566-11.985-6.72-19.68c-0.027-0.293-0.072-0.568-0.48-0.48C24.571,70.536,25.165,76.89,25.214,82.699z M56.414,71.179
	c-0.437,9.445-3.044,17.113-6.72,24.48c-2.61,5.23-6.896,9.953-7.2,15.84c4.417-8.703,14.294-11.946,16.32-23.04
	c-1.09-1.31-3.584-1.216-3.36-3.84c1.09-0.83,2.682-1.158,4.8-0.96c0.074-5.994,0.661-12.5-3.84-13.92
	C56.603,70.565,55.702,70.97,56.414,71.179z M47.294,79.819c-0.907-0.053-0.333-1.587-1.44-1.44c-0.096,1.664-0.4,3.12-2.4,2.88
	c-1.835,0.076-1.56-1.96-2.4-2.88c-1.64-0.36-0.61,1.95-2.4,1.44c-2.485-1.103-6.295-5.772-7.68-4.8
	c1.633,8.927,6.028,15.092,10.08,21.6c1.981-4.351-1.052-11.877,2.88-14.88c0.101,0.58,0.533,0.295,0.96,0
	c1.552,4.688,0.362,12.118,1.92,16.8c3.827-6.574,8.801-14.558,7.2-24.96C51.622,75.507,50.072,78.277,47.294,79.819z
	 M24.734,103.339c0.906,0.654,2.128-0.548,1.92,1.92c-1.19-0.07-2.329-0.089-2.4,0.96c0.444,0.322-0.422,2.793,0.96,3.36
	c1.49,0.05,1.37-1.51,3.36-0.96c0.271,1.169,0.411,2.469,1.92,2.4c-0.07-1.191-0.089-2.33,0.96-2.4
	c0.979,0.142,0.941,1.299,1.92,1.44c1.04-0.721,0.455-3.065,2.88-2.4c0.148-2.708-2.47-2.65-3.36-4.32
	c0.703-0.417,1.521-0.719,1.44-1.92c-1.669,0.229-2.97,0.089-2.4-1.92c-2.007-0.407-1.9,1.299-2.88,1.92
	c-0.935-0.665-1.475-1.726-2.88-1.92C25.997,101.332,25.715,101.594,24.734,103.339z M20.894,138.379
	c5.438-9.595,2.81-26.011-2.88-34.56C12.719,114.835,13.989,130.091,20.894,138.379z M44.894,113.899
	c1.507,0.533,1.268,0.225,2.4-0.48c-0.059-1.222-0.699-1.861-1.92-1.92C44.971,112.057,44.741,112.786,44.894,113.899z
	 M42.974,120.139c0,0.64,0,1.28,0,1.92c1.459,0.019,3.159,0.279,2.88-1.44C45.844,119.304,43.589,119.479,42.974,120.139z
	 M43.454,128.299c0,0.48,0,0.96,0,1.44C46.934,132.221,46.934,125.818,43.454,128.299z M13.214,150.859
	c0.712,0.408,1.032,1.208,0.96,2.4c2.815-1.345,4.729-3.591,8.16-4.32C21.242,143.903,14.536,148.73,13.214,150.859z
	 M78.974,152.779c-3.487,0.704-6.55,0.393-9.6-0.48C68.812,156.65,79.162,157.203,78.974,152.779z"/>
<path fill-rule="evenodd" clip-rule="evenodd" d="M114.014,132.139c4.56-0.079,6.901,2.059,7.2,6.24
	c-2.633,0.887-2.283,4.757-3.36,7.2c-1.906,0.494-4.341,0.459-5.28,1.92c1.201,1.359,2.881,2.239,3.84,3.84
	c-0.392,2.168-0.841,4.279-1.92,5.76c-2.479,0.239-4.513,0.032-5.28-1.44c-1.554,1.856,0.865,4.834,0,7.2
	c1.828,1.372,4.339,2.061,5.28,4.32c2.494-1.573,4.893-5.577,8.64-4.32c-2.217,6.87-13.861,8.307-16.8,0.96
	c-6.997-0.907-9.104-14.547,0.96-13.44c-1.543-2.716-0.72-5.286,1.44-6.72c1.379-0.099,2.438,0.122,2.88,0.96
	c2.548-0.972,1.575-5.465,4.32-6.24c-0.202-1.078-2.547-0.013-2.88-0.96C113.358,135.644,114.356,134.562,114.014,132.139z"/>
<path fill-rule="evenodd" clip-rule="evenodd" d="M78.014,169.1c-2.416-1.424-5.635-2.045-6.24-5.28
	C75.259,162.521,82.528,166.528,78.014,169.1z"/>
</svg>
